<?xml version="1.0" encoding="us-ascii" standalone="no"?><svg xmlns="http://www.w3.org/2000/svg" xmlns:xlink="http://www.w3.org/1999/xlink" contentStyleType="text/css" height="1485px" preserveAspectRatio="none" style="width:921px;height:1485px;background:#FFFFFF;" version="1.1" viewBox="0 0 921 1485" width="921px" zoomAndPan="magnify"><defs/><g><!--class Plant--><g id="elem_Plant"><rect codeLine="6" fill="#F1F1F1" height="460.207" id="Plant" rx="2.5" ry="2.5" style="stroke:#181818;stroke-width:0.5;" width="387" x="94.5" y="116"/><ellipse cx="266.75" cy="132" fill="#ADD1B2" rx="11" ry="11" style="stroke:#181818;stroke-width:1.0;"/><path d="M269.2231,138.1431 Q268.6421,138.4419 268.0029,138.5913 Q267.3638,138.7407 266.6582,138.7407 Q264.1514,138.7407 262.8315,137.0889 Q261.5117,135.437 261.5117,132.3159 Q261.5117,129.1865 262.8315,127.5347 Q264.1514,125.8828 266.6582,125.8828 Q267.3638,125.8828 268.0112,126.0322 Q268.6587,126.1816 269.2231,126.4805 L269.2231,129.2031 Q268.5923,128.6221 267.9988,128.3523 Q267.4053,128.0825 266.7744,128.0825 Q265.4297,128.0825 264.7449,129.1492 Q264.0601,130.2158 264.0601,132.3159 Q264.0601,134.4077 264.7449,135.4744 Q265.4297,136.541 266.7744,136.541 Q267.4053,136.541 267.9988,136.2712 Q268.5923,136.0015 269.2231,135.4204 Z " fill="#000000"/><text fill="#000000" font-family="sans-serif" font-size="14" lengthAdjust="spacing" textLength="34" x="287.25" y="137.291">Plant</text><line style="stroke:#181818;stroke-width:0.5;" x1="95.5" x2="480.5" y1="148" y2="148"/><text fill="#000000" font-family="sans-serif" font-size="14" lengthAdjust="spacing" text-decoration="underline" textLength="176" x="100.5" y="165.5352">+PROCESSING_TIME: long</text><text fill="#000000" font-family="sans-serif" font-size="14" lengthAdjust="spacing" text-decoration="underline" textLength="125" x="100.5" y="182.0234">-NUM_PLANTS: int</text><text fill="#000000" font-family="sans-serif" font-size="14" lengthAdjust="spacing" text-decoration="underline" textLength="194" x="100.5" y="198.5117">-NUMBER_OF_FETCHERS: int</text><text fill="#000000" font-family="sans-serif" font-size="14" lengthAdjust="spacing" text-decoration="underline" textLength="180" x="100.5" y="215">-NUMBER_OF_PEELERS: int</text><text fill="#000000" font-family="sans-serif" font-size="14" lengthAdjust="spacing" text-decoration="underline" textLength="202" x="100.5" y="231.4883">-NUMBER_OF_SQUEEZERS: int</text><text fill="#000000" font-family="sans-serif" font-size="14" lengthAdjust="spacing" text-decoration="underline" textLength="193" x="100.5" y="247.9766">-NUMBER_OF_BOTTLERS: int</text><text fill="#000000" font-family="sans-serif" font-size="14" lengthAdjust="spacing" text-decoration="underline" textLength="331" x="100.5" y="264.4648">-workersPerStation: Map&lt;WorkerType, Integer&gt;</text><text fill="#000000" font-family="sans-serif" font-size="14" lengthAdjust="spacing" textLength="4" x="100.5" y="280.9531">&#160;</text><text fill="#000000" font-family="sans-serif" font-size="14" lengthAdjust="spacing" textLength="222" x="100.5" y="297.4414">+ORANGES_PER_BOTTLE: int = 3</text><text fill="#000000" font-family="sans-serif" font-size="14" lengthAdjust="spacing" textLength="375" x="100.5" y="313.9297">-workerQueues: Map&lt;WorkerType, Queue&lt;Orange&gt;&gt;</text><text fill="#000000" font-family="sans-serif" font-size="14" lengthAdjust="spacing" textLength="110" x="100.5" y="330.418">-thread: Thread</text><text fill="#000000" font-family="sans-serif" font-size="14" lengthAdjust="spacing" textLength="130" x="100.5" y="346.9063">-workers: Worker[]</text><text fill="#000000" font-family="sans-serif" font-size="14" lengthAdjust="spacing" textLength="155" x="100.5" y="363.3945">-timeToWork: boolean</text><line style="stroke:#181818;stroke-width:0.5;" x1="95.5" x2="480.5" y1="370.3477" y2="370.3477"/><text fill="#000000" font-family="sans-serif" font-size="14" lengthAdjust="spacing" textLength="148" x="100.5" y="387.8828">+Plant(plantNum: int)</text><text fill="#000000" font-family="sans-serif" font-size="14" lengthAdjust="spacing" textLength="123" x="100.5" y="404.3711">+startPlant(): void</text><text fill="#000000" font-family="sans-serif" font-size="14" lengthAdjust="spacing" textLength="122" x="100.5" y="420.8594">+stopPlant(): void</text><text fill="#000000" font-family="sans-serif" font-size="14" lengthAdjust="spacing" textLength="135" x="100.5" y="437.3477">+waitToStop(): void</text><text fill="#000000" font-family="sans-serif" font-size="14" lengthAdjust="spacing" textLength="82" x="100.5" y="453.8359">+run(): void</text><text fill="#000000" font-family="sans-serif" font-size="14" lengthAdjust="spacing" textLength="187" x="100.5" y="470.3242">+getProvidedOranges(): int</text><text fill="#000000" font-family="sans-serif" font-size="14" lengthAdjust="spacing" textLength="196" x="100.5" y="486.8125">+getProcessedOranges(): int</text><text fill="#000000" font-family="sans-serif" font-size="14" lengthAdjust="spacing" textLength="115" x="100.5" y="503.3008">+getBottles(): int</text><text fill="#000000" font-family="sans-serif" font-size="14" lengthAdjust="spacing" textLength="109" x="100.5" y="519.7891">+getWaste(): int</text><text fill="#000000" font-family="sans-serif" font-size="14" lengthAdjust="spacing" textLength="166" x="100.5" y="536.2773">+getWorkers(): Worker[]</text><text fill="#000000" font-family="sans-serif" font-size="14" lengthAdjust="spacing" text-decoration="underline" textLength="181" x="100.5" y="552.7656">+main(args: String[]): void</text><text fill="#000000" font-family="sans-serif" font-size="14" lengthAdjust="spacing" text-decoration="underline" textLength="265" x="100.5" y="569.2539">-delay(time: long, errMsg: String): void</text></g><!--class Runnable--><g id="elem_Runnable"><rect fill="#F1F1F1" height="48" id="Runnable" rx="2.5" ry="2.5" style="stroke:#181818;stroke-width:0.5;" width="97" x="362.5" y="7"/><ellipse cx="377.5" cy="23" fill="#B4A7E5" rx="11" ry="11" style="stroke:#181818;stroke-width:1.0;"/><path d="M373.9277,19.2651 L373.9277,17.1069 L381.3071,17.1069 L381.3071,19.2651 L378.8418,19.2651 L378.8418,27.3418 L381.3071,27.3418 L381.3071,29.5 L373.9277,29.5 L373.9277,27.3418 L376.3931,27.3418 L376.3931,19.2651 Z " fill="#000000"/><text fill="#000000" font-family="sans-serif" font-size="14" font-style="italic" lengthAdjust="spacing" textLength="65" x="391.5" y="28.291">Runnable</text><line style="stroke:#181818;stroke-width:0.5;" x1="363.5" x2="458.5" y1="39" y2="39"/><line style="stroke:#181818;stroke-width:0.5;" x1="363.5" x2="458.5" y1="47" y2="47"/></g><!--class WorkerType--><g id="elem_WorkerType"><rect codeLine="38" fill="#F1F1F1" height="113.9531" id="WorkerType" rx="2.5" ry="2.5" style="stroke:#181818;stroke-width:0.5;" width="114" x="7" y="776.87"/><ellipse cx="22" cy="792.87" fill="#EB937F" rx="11" ry="11" style="stroke:#181818;stroke-width:1.0;"/><path d="M25.6143,799.37 L17.8945,799.37 L17.8945,786.9769 L25.6143,786.9769 L25.6143,789.1351 L20.3433,789.1351 L20.3433,791.808 L25.1162,791.808 L25.1162,793.9662 L20.3433,793.9662 L20.3433,797.2118 L25.6143,797.2118 Z " fill="#000000"/><text fill="#000000" font-family="sans-serif" font-size="14" lengthAdjust="spacing" textLength="82" x="36" y="798.161">WorkerType</text><line style="stroke:#181818;stroke-width:0.5;" x1="8" x2="120" y1="808.87" y2="808.87"/><text fill="#000000" font-family="sans-serif" font-size="14" lengthAdjust="spacing" textLength="58" x="13" y="826.4052">Fetchers</text><text fill="#000000" font-family="sans-serif" font-size="14" lengthAdjust="spacing" textLength="49" x="13" y="842.8934">Peelers</text><text fill="#000000" font-family="sans-serif" font-size="14" lengthAdjust="spacing" textLength="71" x="13" y="859.3817">Squeezers</text><text fill="#000000" font-family="sans-serif" font-size="14" lengthAdjust="spacing" textLength="52" x="13" y="875.87">Bottlers</text><line style="stroke:#181818;stroke-width:0.5;" x1="8" x2="120" y1="882.8231" y2="882.8231"/></g><!--class Orange--><g id="elem_Orange"><rect codeLine="49" fill="#F1F1F1" height="130.4414" id="Orange" rx="2.5" ry="2.5" style="stroke:#181818;stroke-width:0.5;" width="146" x="351" y="1091.48"/><ellipse cx="394.35" cy="1107.48" fill="#ADD1B2" rx="11" ry="11" style="stroke:#181818;stroke-width:1.0;"/><path d="M396.8231,1113.6231 Q396.2421,1113.9219 395.6029,1114.0713 Q394.9638,1114.2207 394.2582,1114.2207 Q391.7514,1114.2207 390.4315,1112.5689 Q389.1117,1110.917 389.1117,1107.7959 Q389.1117,1104.6665 390.4315,1103.0147 Q391.7514,1101.3628 394.2582,1101.3628 Q394.9638,1101.3628 395.6112,1101.5122 Q396.2587,1101.6616 396.8231,1101.9605 L396.8231,1104.6831 Q396.1923,1104.1021 395.5988,1103.8323 Q395.0053,1103.5625 394.3744,1103.5625 Q393.0297,1103.5625 392.3449,1104.6292 Q391.6601,1105.6958 391.6601,1107.7959 Q391.6601,1109.8877 392.3449,1110.9544 Q393.0297,1112.021 394.3744,1112.021 Q395.0053,1112.021 395.5988,1111.7512 Q396.1923,1111.4815 396.8231,1110.9004 Z " fill="#000000"/><text fill="#000000" font-family="sans-serif" font-size="14" lengthAdjust="spacing" textLength="51" x="414.65" y="1112.771">Orange</text><line style="stroke:#181818;stroke-width:0.5;" x1="352" x2="496" y1="1123.48" y2="1123.48"/><text fill="#000000" font-family="sans-serif" font-size="14" lengthAdjust="spacing" textLength="83" x="357" y="1141.0152">-state: State</text><line style="stroke:#181818;stroke-width:0.5;" x1="352" x2="496" y1="1147.9683" y2="1147.9683"/><text fill="#000000" font-family="sans-serif" font-size="14" lengthAdjust="spacing" textLength="72" x="357" y="1165.5034">+Orange()</text><text fill="#000000" font-family="sans-serif" font-size="14" lengthAdjust="spacing" textLength="119" x="357" y="1181.9917">+getState(): State</text><text fill="#000000" font-family="sans-serif" font-size="14" lengthAdjust="spacing" textLength="134" x="357" y="1198.48">+runProcess(): void</text><text fill="#000000" font-family="sans-serif" font-size="14" lengthAdjust="spacing" textLength="108" x="357" y="1214.9683">-doWork(): void</text></g><!--class State--><g id="elem_State"><rect codeLine="60" fill="#F1F1F1" height="179.9063" id="State" rx="2.5" ry="2.5" style="stroke:#181818;stroke-width:0.5;" width="160" x="344" y="1298.92"/><ellipse cx="402.75" cy="1314.92" fill="#EB937F" rx="11" ry="11" style="stroke:#181818;stroke-width:1.0;"/><path d="M406.3643,1321.42 L398.6445,1321.42 L398.6445,1309.0269 L406.3643,1309.0269 L406.3643,1311.1851 L401.0933,1311.1851 L401.0933,1313.858 L405.8662,1313.858 L405.8662,1316.0162 L401.0933,1316.0162 L401.0933,1319.2618 L406.3643,1319.2618 Z " fill="#000000"/><text fill="#000000" font-family="sans-serif" font-size="14" lengthAdjust="spacing" textLength="34" x="423.25" y="1320.211">State</text><line style="stroke:#181818;stroke-width:0.5;" x1="345" x2="503" y1="1330.92" y2="1330.92"/><text fill="#000000" font-family="sans-serif" font-size="14" lengthAdjust="spacing" textLength="64" x="350" y="1348.4552">Fetched()</text><text fill="#000000" font-family="sans-serif" font-size="14" lengthAdjust="spacing" textLength="55" x="350" y="1364.9434">Peeled()</text><text fill="#000000" font-family="sans-serif" font-size="14" lengthAdjust="spacing" textLength="77" x="350" y="1381.4317">Squeezed()</text><text fill="#000000" font-family="sans-serif" font-size="14" lengthAdjust="spacing" textLength="58" x="350" y="1397.92">Bottled()</text><text fill="#000000" font-family="sans-serif" font-size="14" lengthAdjust="spacing" textLength="79" x="350" y="1414.4083">Processed()</text><line style="stroke:#181818;stroke-width:1.0;" x1="345" x2="503" y1="1421.3614" y2="1421.3614"/><text fill="#000000" font-family="sans-serif" font-size="14" lengthAdjust="spacing" textLength="103" x="350" y="1438.8966">-finalIndex: int</text><text fill="#000000" font-family="sans-serif" font-size="14" lengthAdjust="spacing" textLength="148" x="350" y="1455.3848">-timeToComplete: int</text><text fill="#000000" font-family="sans-serif" font-size="14" lengthAdjust="spacing" textLength="117" x="350" y="1471.8731">+getNext(): State</text></g><!--class Worker--><g id="elem_Worker"><rect codeLine="76" fill="#F1F1F1" height="361.2773" id="Worker" rx="2.5" ry="2.5" style="stroke:#181818;stroke-width:0.5;" width="758" x="156" y="653.21"/><ellipse cx="506.25" cy="669.21" fill="#ADD1B2" rx="11" ry="11" style="stroke:#181818;stroke-width:1.0;"/><path d="M508.7231,675.3531 Q508.1421,675.6519 507.5029,675.8013 Q506.8638,675.9507 506.1582,675.9507 Q503.6514,675.9507 502.3315,674.2989 Q501.0117,672.647 501.0117,669.5259 Q501.0117,666.3965 502.3315,664.7447 Q503.6514,663.0928 506.1582,663.0928 Q506.8638,663.0928 507.5112,663.2422 Q508.1587,663.3916 508.7231,663.6905 L508.7231,666.4131 Q508.0923,665.8321 507.4988,665.5623 Q506.9053,665.2925 506.2744,665.2925 Q504.9297,665.2925 504.2449,666.3592 Q503.5601,667.4258 503.5601,669.5259 Q503.5601,671.6177 504.2449,672.6844 Q504.9297,673.751 506.2744,673.751 Q506.9053,673.751 507.4988,673.4812 Q508.0923,673.2115 508.7231,672.6304 Z " fill="#000000"/><text fill="#000000" font-family="sans-serif" font-size="14" lengthAdjust="spacing" textLength="49" x="526.75" y="674.501">Worker</text><line style="stroke:#181818;stroke-width:0.5;" x1="157" x2="913" y1="685.21" y2="685.21"/><text fill="#000000" font-family="sans-serif" font-size="14" lengthAdjust="spacing" textLength="222" x="162" y="702.7452">+ORANGES_PER_BOTTLE: int = 3</text><text fill="#000000" font-family="sans-serif" font-size="14" lengthAdjust="spacing" textLength="110" x="162" y="719.2334">-thread: Thread</text><text fill="#000000" font-family="sans-serif" font-size="14" lengthAdjust="spacing" textLength="179" x="162" y="735.7217">-before: Queue&lt;Orange&gt;</text><text fill="#000000" font-family="sans-serif" font-size="14" lengthAdjust="spacing" textLength="166" x="162" y="752.21">-after: Queue&lt;Orange&gt;</text><text fill="#000000" font-family="sans-serif" font-size="14" lengthAdjust="spacing" textLength="150" x="162" y="768.6983">-orangesProvided: int</text><text fill="#000000" font-family="sans-serif" font-size="14" lengthAdjust="spacing" textLength="159" x="162" y="785.1866">-orangesProcessed: int</text><text fill="#000000" font-family="sans-serif" font-size="14" lengthAdjust="spacing" textLength="127" x="162" y="801.6748">-type: WorkerType</text><text fill="#000000" font-family="sans-serif" font-size="14" lengthAdjust="spacing" textLength="155" x="162" y="818.1631">-timeToWork: boolean</text><line style="stroke:#181818;stroke-width:0.5;" x1="157" x2="913" y1="825.1162" y2="825.1162"/><text fill="#000000" font-family="sans-serif" font-size="14" lengthAdjust="spacing" textLength="746" x="162" y="842.6514">+Worker(plantNum: int, threadNum: int, type: WorkerType, before: Queue&lt;Orange&gt;, after: Queue&lt;Orange&gt;)</text><text fill="#000000" font-family="sans-serif" font-size="14" lengthAdjust="spacing" textLength="138" x="162" y="859.1397">+startWorker(): void</text><text fill="#000000" font-family="sans-serif" font-size="14" lengthAdjust="spacing" textLength="137" x="162" y="875.628">+stopWorker(): void</text><text fill="#000000" font-family="sans-serif" font-size="14" lengthAdjust="spacing" textLength="135" x="162" y="892.1162">+waitToStop(): void</text><text fill="#000000" font-family="sans-serif" font-size="14" lengthAdjust="spacing" textLength="82" x="162" y="908.6045">+run(): void</text><text fill="#000000" font-family="sans-serif" font-size="14" lengthAdjust="spacing" textLength="143" x="162" y="925.0928">+fetchOrange(): void</text><text fill="#000000" font-family="sans-serif" font-size="14" lengthAdjust="spacing" textLength="201" x="162" y="941.5811">+checkAndRemove(): Orange</text><text fill="#000000" font-family="sans-serif" font-size="14" lengthAdjust="spacing" textLength="166" x="162" y="958.0694">+getType(): WorkerType</text><text fill="#000000" font-family="sans-serif" font-size="14" lengthAdjust="spacing" textLength="196" x="162" y="974.5577">+getOrangesProcessed(): int</text><text fill="#000000" font-family="sans-serif" font-size="14" lengthAdjust="spacing" textLength="187" x="162" y="991.0459">+getOrangesProvided(): int</text><text fill="#000000" font-family="sans-serif" font-size="14" lengthAdjust="spacing" text-decoration="underline" textLength="265" x="162" y="1007.5342">-delay(time: long, errMsg: String): void</text></g><!--class Queue<Orange>--><g id="elem_Queue&lt;Orange&gt;"><rect fill="#F1F1F1" height="48" id="Queue&lt;Orange&gt;" rx="2.5" ry="2.5" style="stroke:#181818;stroke-width:0.5;" width="150" x="532" y="1132.7"/><ellipse cx="547" cy="1148.7" fill="#ADD1B2" rx="11" ry="11" style="stroke:#181818;stroke-width:1.0;"/><path d="M549.4731,1154.8431 Q548.8921,1155.1419 548.2529,1155.2913 Q547.6138,1155.4407 546.9082,1155.4407 Q544.4014,1155.4407 543.0815,1153.7889 Q541.7617,1152.137 541.7617,1149.0159 Q541.7617,1145.8865 543.0815,1144.2347 Q544.4014,1142.5828 546.9082,1142.5828 Q547.6138,1142.5828 548.2612,1142.7322 Q548.9087,1142.8816 549.4731,1143.1805 L549.4731,1145.9031 Q548.8423,1145.3221 548.2488,1145.0523 Q547.6553,1144.7825 547.0244,1144.7825 Q545.6797,1144.7825 544.9949,1145.8492 Q544.3101,1146.9158 544.3101,1149.0159 Q544.3101,1151.1077 544.9949,1152.1744 Q545.6797,1153.241 547.0244,1153.241 Q547.6553,1153.241 548.2488,1152.9712 Q548.8423,1152.7015 549.4731,1152.1204 Z " fill="#000000"/><text fill="#000000" font-family="sans-serif" font-size="14" lengthAdjust="spacing" textLength="118" x="561" y="1153.991">Queue&lt;Orange&gt;</text><line style="stroke:#181818;stroke-width:0.5;" x1="533" x2="681" y1="1164.7" y2="1164.7"/><line style="stroke:#181818;stroke-width:0.5;" x1="533" x2="681" y1="1172.7" y2="1172.7"/></g><!--reverse link Runnable to Plant--><g id="link_Runnable_Plant"><path d="M395.2693,72.03 C389.3593,87.05 387.62,91.52 378.1,115.74 " fill="none" id="Runnable-backto-Plant" style="stroke:#181818;stroke-width:1.0;stroke-dasharray:7.0,7.0;"/><polygon fill="none" points="401.86,55.28,389.686,69.8331,400.8526,74.2269,401.86,55.28" style="stroke:#181818;stroke-width:1.0;"/></g><!--link Plant to WorkerType--><g id="link_Plant_WorkerType"><path codeLine="44" d="M173.56,576.58 C161.32,602.32 149.24,628.25 138,653.21 C119.58,694.11 102.5492,735.4295 88.2992,771.0395 " fill="none" id="Plant-to-WorkerType" style="stroke:#181818;stroke-width:1.0;stroke-dasharray:7.0,7.0;"/><polygon fill="#181818" points="86.07,776.61,93.1274,769.7403,87.9276,771.9679,85.7,766.7681,86.07,776.61" style="stroke:#181818;stroke-width:1.0;"/><text fill="#000000" font-family="sans-serif" font-size="13" lengthAdjust="spacing" textLength="93" x="158.32" y="619.7784">&#171;enumeration&#187;</text></g><!--link Orange to State--><g id="link_Orange_State"><path codeLine="71" d="M424,1222.13 C424,1245.8 424,1267.04 424,1292.52 " fill="none" id="Orange-to-State" style="stroke:#181818;stroke-width:1.0;stroke-dasharray:7.0,7.0;"/><polygon fill="#181818" points="424,1298.52,428,1289.52,424,1293.52,420,1289.52,424,1298.52" style="stroke:#181818;stroke-width:1.0;"/><text fill="#000000" font-family="sans-serif" font-size="13" lengthAdjust="spacing" textLength="93" x="425" y="1265.4884">&#171;enumeration&#187;</text></g><!--reverse link Runnable to Worker--><g id="link_Runnable_Worker"><path d="M460.366,66.2094 C479.656,81.0794 487.66,91.23 499,116 C576.75,285.8 575.81,502.48 561.66,652.95 " fill="none" id="Runnable-backto-Worker" style="stroke:#181818;stroke-width:1.0;stroke-dasharray:7.0,7.0;"/><polygon fill="none" points="446.11,55.22,456.7028,70.9614,464.0291,61.4574,446.11,55.22" style="stroke:#181818;stroke-width:1.0;"/></g><!--reverse link Plant to Worker--><g id="link_Plant_Worker"><path codeLine="103" d="M410.0681,587.157 C423.1181,612.827 430.84,628 443.51,652.92 " fill="none" id="Plant-backto-Worker" style="stroke:#181818;stroke-width:1.0;"/><polygon fill="none" points="404.63,576.46,403.7834,583.6212,410.0681,587.157,410.9147,579.9958,404.63,576.46" style="stroke:#181818;stroke-width:1.0;"/><text fill="#000000" font-family="sans-serif" font-size="13" lengthAdjust="spacing" textLength="56" x="427.29" y="619.7784">manages</text><text fill="#000000" font-family="sans-serif" font-size="13" lengthAdjust="spacing" textLength="8" x="400.3257" y="596.8381">1</text><text fill="#000000" font-family="sans-serif" font-size="13" lengthAdjust="spacing" textLength="34" x="404.9331" y="642.5456">many</text></g><!--link Worker to Queue<Orange>--><g id="link_Worker_Queue&lt;Orange&gt;"><path codeLine="106" d="M575.42,1014.97 C585.93,1061.82 594.6267,1100.5455 600.4567,1126.5355 " fill="none" id="Worker-to-Queue&lt;Orange&gt;" style="stroke:#181818;stroke-width:1.0;"/><polygon fill="#181818" points="601.77,1132.39,603.7031,1122.7327,600.6756,1127.5112,595.8971,1124.4837,601.77,1132.39" style="stroke:#181818;stroke-width:1.0;"/><text fill="#000000" font-family="sans-serif" font-size="13" lengthAdjust="spacing" textLength="76" x="586.72" y="1058.0484">before/after</text></g><!--link Worker to Orange--><g id="link_Worker_Orange"><path codeLine="109" d="M472.69,1014.97 C463.25,1042.25 456.0437,1063.1004 448.2437,1085.6204 " fill="none" id="Worker-to-Orange" style="stroke:#181818;stroke-width:1.0;"/><polygon fill="#181818" points="446.28,1091.29,453.0053,1084.0948,447.9164,1086.5654,445.4458,1081.4765,446.28,1091.29" style="stroke:#181818;stroke-width:1.0;"/><text fill="#000000" font-family="sans-serif" font-size="13" lengthAdjust="spacing" textLength="63" x="460.9" y="1058.0484">processes</text></g><!--SRC=[dLRRJjj047ttLupoGX1nsgflLeeKa6aZaKjZLqX5ADh4Gx2mTztTDIqW_hrxC-ia45eYbApdvjapPuuGjpcj22Sbh0eYn51AdYzhYQCLeqd-WF0n20w-lF893c1M42hXLES2eHcCiLmY5tjop7jSNbvM1PP8fO1vJIbP5WYF0S2Za4JcgoSucisdft6IZ2PV5-be74TGCBfkHuIJ7-F5x7muIPC8SYgtVIVnV34zMvp5wUctUButPXR7vs-49Dz_nF7FDu9EfcdwN0WsWdupVglWcI5Fj8dH2CQa6bmOStfVOGz6LE8Q-R7AKtz7q_bmyZLEL7DpLzYM_GAVbTiL_5vZZMAtbh4FffpGDHxhYg6yuKYo25BpwokeP9juUMN2yX9JfYqHB1aha53NZnbSjzBVaxeqlHngkxeYbzPv6C4TopDhPTMEyJV9PSeIvMfRUKtRZskKCyxkyWmpsx_GNWkwSwvGY5Uy9qpAOjjuGOJ4BPEzl3Qshk_fLvASTWbVAtWIjHbqVNdbU_HZpR0WzrqDcYLe3v3piLWtMKtEargcSF-dsQc-doF4j2wH6xwydOyg65h9Uf_EKAvkz5e2p10BUqf-rOWFzcpnKiUdm6vclt_SBXB1O82-2yMblQfWP_8EMN29kkTGeuiQGVLZDi7ukeTkTCQk1_SSe1ZaMD4YKfWP6dV_RmJsNNrJ-XtmspoFV6QwDj3ReyFUFbZmNKn3Q_EawgclwvoIOaGp_DDGr-tdATFwgK7oZ9xW7-bHUGeSedgUjgl_7AKbmJj6wH9Va_YtX6rNg9PupRYwwuQeQGUvbiXVi3Eh38sCF8FdxHPgZwgYUjIY_Nubj76RKjW3stVhUQjc3rwyHmzUkeLNLlUoBMdTjVwJjbvhKZRhvCsAgAlR8StcMB8xux4nZbcwUo-K3X_jc6xXkIcnqyqfUEVxv7CFLUUgZAQqkCah0HzWA0HRvTRq3__4b8GIrIYKTI5pHLftKT5tajZvr04MXj1HWVUTXjzHanVuPQc5AhCnI50ZLzUkQcbsYDLI7Vk1Ym_3O-Xin7TKNSkJ3uONhUALWxaHIx5HngrxvCE2lm00]--></g></svg>